<?xml version="1.0" encoding="UTF-8"?>
<svg xmlns="http://www.w3.org/2000/svg" xmlns:xlink="http://www.w3.org/1999/xlink" width="810pt" height="809.999993pt" viewBox="0 0 810 809.999993" version="1.2">
<defs>
<clipPath id="clip1">
  <path d="M 58.269531 58.269531 L 752.019531 58.269531 L 752.019531 752.019531 L 58.269531 752.019531 Z M 58.269531 58.269531 "/>
</clipPath>
</defs>
<g id="surface1">
<path style=" stroke:none;fill-rule:nonzero;fill:rgb(26.269531%,3.919983%,12.159729%);fill-opacity:1;" d="M 721.953125 405.238281 C 721.953125 580.15625 580.15625 721.960938 405.230469 721.960938 C 230.3125 721.960938 88.507812 580.15625 88.507812 405.238281 C 88.507812 230.320312 230.3125 88.515625 405.230469 88.515625 C 580.15625 88.515625 721.953125 230.320312 721.953125 405.238281 "/>
<g clip-path="url(#clip1)" clip-rule="nonzero">
<path style=" stroke:none;fill-rule:nonzero;fill:rgb(1.959229%,2.349854%,2.349854%);fill-opacity:1;" d="M 405.230469 58.351562 C 213.960938 58.351562 58.347656 213.960938 58.347656 405.238281 C 58.347656 596.511719 213.960938 752.125 405.230469 752.125 C 596.511719 752.125 752.125 596.511719 752.125 405.238281 C 752.125 213.960938 596.511719 58.351562 405.230469 58.351562 Z M 405.230469 88.515625 C 580.15625 88.515625 721.953125 230.320312 721.953125 405.238281 C 721.953125 580.15625 580.15625 721.960938 405.230469 721.960938 C 230.3125 721.960938 88.507812 580.15625 88.507812 405.238281 C 88.507812 230.320312 230.3125 88.515625 405.230469 88.515625 "/>
</g>
<path style=" stroke:none;fill-rule:nonzero;fill:rgb(89.408875%,51.368713%,8.628845%);fill-opacity:1;" d="M 706.875 390.160156 C 706.875 556.75 571.828125 691.796875 405.230469 691.796875 C 238.644531 691.796875 103.585938 556.75 103.585938 390.160156 C 103.585938 223.566406 238.644531 88.515625 405.230469 88.515625 C 571.828125 88.515625 706.875 223.566406 706.875 390.160156 "/>
<path style=" stroke:none;fill-rule:nonzero;fill:rgb(100%,93.728638%,70.979309%);fill-opacity:1;" d="M 163.921875 390.160156 C 159.398438 364.808594 158.898438 339.554688 163.507812 314.140625 C 168.738281 285.324219 179.71875 257.726562 195.382812 233 C 227.8125 181.824219 279.3125 144.011719 337.679688 127.867188 C 374.667969 117.632812 414.175781 115.9375 451.898438 123.046875 C 511.328125 134.25 566.285156 167.085938 602.960938 215.398438 C 637.726562 261.183594 656.082031 319.394531 648.816406 376.863281 C 648.246094 381.316406 647.339844 385.734375 646.550781 390.160156 C 641.695312 369.324219 636.089844 348.789062 627.4375 329.164062 C 617.0625 305.640625 603.496094 283.265625 586.59375 263.847656 C 552.015625 224.144531 505.863281 194.941406 454.015625 184.167969 C 437.578125 180.753906 421.207031 179.371094 404.46875 178.992188 C 404.703125 178.988281 404.941406 178.992188 405.175781 179.007812 C 361.367188 179.25 317.996094 191.355469 280.828125 214.6875 C 239.335938 240.738281 206.511719 278.640625 185.792969 322.976562 C 175.722656 344.519531 169.257812 367.058594 163.921875 390.160156 "/>
</g>
</svg>
