<?xml version="1.0" encoding="UTF-8"?>
<svg xmlns="http://www.w3.org/2000/svg" xmlns:xlink="http://www.w3.org/1999/xlink" width="810pt" height="809.999993pt" viewBox="0 0 810 809.999993" version="1.2">
<defs>
<clipPath id="clip1">
  <path d="M 15 518 L 438 518 L 438 760.898438 L 15 760.898438 Z M 15 518 "/>
</clipPath>
</defs>
<g id="surface1">
<rect x="0" y="0" width="810" height="809.999993" style="fill:rgb(100%,100%,100%);fill-opacity:1;stroke:none;"/>
<rect x="0" y="0" width="810" height="809.999993" style="fill:rgb(100%,100%,100%);fill-opacity:1;stroke:none;"/>
<rect x="0" y="0" width="810" height="809.999993" style="fill:rgb(100%,100%,100%);fill-opacity:1;stroke:none;"/>
<path style=" stroke:none;fill-rule:nonzero;fill:rgb(52.159119%,23.139954%,23.529053%);fill-opacity:1;" d="M 792.070312 523.410156 C 772.859375 511.714844 742.480469 522.179688 721.554688 524.785156 C 715.347656 525.558594 712.011719 537.25 717.789062 540.605469 C 734.875 550.53125 683.339844 624.914062 674.574219 636.367188 C 664.167969 649.984375 652.078125 662.710938 638.105469 672.734375 C 632.640625 676.65625 626.550781 680.910156 620.277344 683.503906 C 604.449219 690.042969 596.050781 683.792969 582.339844 675.738281 C 555.488281 659.957031 530.605469 640.980469 508.371094 619.1875 C 484.3125 595.625 456.855469 568.167969 445.074219 535.984375 C 443.699219 532.21875 439.003906 535.660156 440.042969 538.875 C 453.050781 578.839844 486.683594 611.777344 517.265625 639.320312 C 534.902344 655.195312 553.125 670.269531 573.09375 683.15625 C 586.316406 691.6875 601.292969 707.742188 617.804688 702.5 C 654.328125 690.90625 683.402344 653.460938 702.523438 622.300781 C 714.609375 602.609375 727.300781 580.976562 735.503906 559.296875 C 737.042969 555.234375 737.976562 551.125 738.226562 547.144531 C 755.214844 548.335938 782.742188 552.082031 793.34375 535.433594 C 795.4375 532.140625 795.992188 525.796875 792.070312 523.410156 "/>
<path style=" stroke:none;fill-rule:nonzero;fill:rgb(52.159119%,23.139954%,23.529053%);fill-opacity:1;" d="M 306.914062 394.640625 C 273.898438 364.441406 261.472656 326.113281 261.496094 283.742188 C 262.675781 283.285156 263.820312 282.617188 264.851562 281.628906 C 265.144531 281.351562 265.339844 281.039062 265.59375 280.75 C 268.65625 283.574219 273.210938 283.617188 277.355469 282.898438 C 283.175781 281.894531 285.570312 272.21875 280.726562 268.738281 C 279.441406 267.820312 278.128906 267.113281 276.710938 266.402344 C 276.429688 266.265625 276.171875 266.304688 275.894531 266.214844 C 280.054688 258.40625 278.28125 245.992188 269.246094 243.332031 C 263.667969 241.683594 258.339844 245.113281 256.238281 250.203125 C 255.097656 250.238281 253.929688 250.378906 252.699219 250.765625 C 251.199219 251.242188 249.898438 252.148438 248.863281 253.3125 C 245.4375 254.429688 242.410156 258.402344 243.261719 262.101562 C 244.0625 265.5625 245.0625 269.402344 246.441406 273.007812 C 243.964844 322.734375 254.871094 378.167969 298.089844 408.265625 C 306.082031 413.835938 313.34375 400.519531 306.914062 394.640625 "/>
<path style=" stroke:none;fill-rule:nonzero;fill:rgb(39.608765%,43.139648%,13.729858%);fill-opacity:1;" d="M 351.382812 522.800781 C 353.324219 523.550781 478.898438 586.324219 579.664062 498.160156 C 680.433594 409.992188 533.941406 289.976562 523.46875 230.707031 C 512.984375 171.433594 528.972656 114.632812 516.765625 87.09375 C 504.554688 59.5625 471.03125 50.210938 450.648438 62.617188 C 430.265625 75.03125 351.382812 522.800781 351.382812 522.800781 "/>
<path style=" stroke:none;fill-rule:nonzero;fill:rgb(79.219055%,83.918762%,36.468506%);fill-opacity:1;" d="M 418.121094 89.515625 C 420.917969 85.664062 448.171875 48.65625 478.296875 64.914062 C 508.40625 81.167969 467.59375 211.667969 510.941406 339.539062 C 554.28125 467.414062 481.746094 577.988281 344.914062 520.199219 C 208.082031 462.410156 384.765625 135.585938 418.121094 89.515625 "/>
<path style=" stroke:none;fill-rule:nonzero;fill:rgb(85.879517%,90.979004%,39.219666%);fill-opacity:1;" d="M 510.664062 340.28125 C 467.316406 212.40625 508.132812 81.902344 478.015625 65.648438 C 447.894531 49.390625 420.636719 86.394531 417.84375 90.253906 C 412.855469 97.140625 404.636719 110.390625 394.777344 127.976562 C 393.789062 131.597656 392.847656 135.3125 391.996094 139.203125 C 368.402344 247 414.914062 267.542969 438.894531 270.050781 C 461.738281 272.445312 499.476562 466.574219 406.726562 536.378906 C 502.167969 541.757812 546.867188 447.09375 510.664062 340.28125 "/>
<path style=" stroke:none;fill-rule:nonzero;fill:rgb(61.959839%,66.268921%,30.979919%);fill-opacity:1;" d="M 380.964844 275.011719 C 380.964844 275.011719 284.25 352.59375 325.894531 459.261719 C 352.9375 528.535156 419.253906 486.214844 419.996094 416.429688 C 420.734375 346.652344 380.964844 275.011719 380.964844 275.011719 "/>
<path style=" stroke:none;fill-rule:nonzero;fill:rgb(52.159119%,23.139954%,23.529053%);fill-opacity:1;" d="M 386.464844 271.265625 C 386.464844 271.265625 340.898438 295.714844 330.894531 379.621094 C 320.894531 463.519531 375.910156 491.304688 405.359375 470.742188 C 434.808594 450.183594 436.480469 247.375 386.464844 271.265625 "/>
<path style=" stroke:none;fill-rule:nonzero;fill:rgb(64.309692%,28.62854%,28.62854%);fill-opacity:1;" d="M 368.128906 302.9375 C 368.128906 302.9375 324.042969 374.0625 357.382812 428.515625 C 390.726562 482.96875 422.21875 411.472656 416.285156 349.984375 C 410.359375 288.488281 386.28125 270.707031 368.128906 302.9375 "/>
<path style=" stroke:none;fill-rule:nonzero;fill:rgb(79.60968%,34.118652%,34.509277%);fill-opacity:1;" d="M 399.828125 343.75 C 399.703125 333.605469 399.277344 323.433594 397.367188 313.449219 C 395.476562 303.570312 384.546875 308.710938 384.5625 316.832031 C 384.582031 327.023438 385.242188 337.191406 384.996094 347.386719 C 384.808594 355.203125 383.34375 362.125 387.335938 369.046875 C 389.417969 372.648438 394.242188 370.789062 396.039062 368.148438 C 400.957031 360.914062 399.933594 352.203125 399.828125 343.75 "/>
<path style=" stroke:none;fill-rule:nonzero;fill:rgb(79.60968%,34.118652%,34.509277%);fill-opacity:1;" d="M 379.921875 393.5 C 379.53125 397.46875 379.066406 401.445312 378.757812 405.421875 C 378.464844 409.234375 378.148438 413.050781 381.621094 415.550781 C 383.078125 416.601562 385.097656 416.765625 386.640625 415.769531 C 393.296875 411.46875 392.035156 400.898438 392.601562 393.886719 C 393.371094 384.371094 380.78125 384.644531 379.921875 393.5 "/>
<path style=" stroke:none;fill-rule:nonzero;fill:rgb(72.158813%,13.729858%,18.818665%);fill-opacity:1;" d="M 445.949219 179.367188 C 445.949219 179.367188 467.230469 178.101562 468.339844 199.589844 C 469.453125 221.074219 435.367188 243.855469 419.066406 238.855469 C 402.769531 233.851562 407.398438 194.402344 407.398438 194.402344 L 445.949219 179.367188 "/>
<path style=" stroke:none;fill-rule:nonzero;fill:rgb(100%,100%,100%);fill-opacity:1;" d="M 399.984375 191.808594 C 399.984375 191.808594 398.503906 201.625 405.734375 204.40625 C 412.957031 207.179688 414.804688 194.214844 414.804688 194.214844 C 414.804688 194.214844 417.582031 203.472656 424.625 201.066406 C 431.664062 198.664062 432.03125 189.769531 432.03125 189.769531 C 432.03125 189.769531 434.070312 198.109375 440.183594 195.511719 C 446.292969 192.917969 448.492188 182.820312 448.738281 179.339844 C 445.214844 178.148438 402.761719 185.511719 399.984375 191.808594 "/>
<path style=" stroke:none;fill-rule:nonzero;fill:rgb(1.568604%,2.349854%,2.349854%);fill-opacity:1;" d="M 406.449219 124.847656 C 403.769531 130.398438 401.253906 137.082031 402.929688 143.230469 C 403.890625 146.777344 408.699219 146.261719 410.253906 143.546875 C 412.707031 139.292969 413.273438 134.242188 415.589844 129.863281 C 419.570312 122.347656 410.367188 116.734375 406.449219 124.847656 "/>
<path style=" stroke:none;fill-rule:nonzero;fill:rgb(1.568604%,2.349854%,2.349854%);fill-opacity:1;" d="M 449.5625 120.703125 C 442.167969 122.976562 440.113281 133.886719 440.847656 140.628906 C 441.632812 147.886719 449.929688 144.917969 451.046875 139.4375 C 452.046875 134.496094 455.332031 129.832031 455.078125 124.835938 C 454.9375 122.191406 452.203125 119.890625 449.5625 120.703125 "/>
<path style=" stroke:none;fill-rule:nonzero;fill:rgb(100%,100%,100%);fill-opacity:1;" d="M 456.058594 124.628906 C 452.140625 124.628906 451.046875 131.734375 455.246094 131.734375 C 459.152344 131.734375 460.257812 124.628906 456.058594 124.628906 "/>
<path style=" stroke:none;fill-rule:nonzero;fill:rgb(100%,100%,100%);fill-opacity:1;" d="M 416.613281 124.53125 C 412.589844 124.53125 411.457031 131.839844 415.78125 131.839844 C 419.808594 131.839844 420.9375 124.53125 416.613281 124.53125 "/>
<path style=" stroke:none;fill-rule:nonzero;fill:rgb(52.159119%,23.139954%,23.529053%);fill-opacity:1;" d="M 415.59375 84.835938 C 410.710938 84.683594 406.570312 89.957031 404.035156 93.628906 C 401.25 97.664062 405.59375 103.15625 409.761719 99.574219 C 412.882812 96.886719 417.042969 93.632812 418.125 89.511719 C 418.632812 87.589844 418.085938 84.917969 415.59375 84.835938 "/>
<path style=" stroke:none;fill-rule:nonzero;fill:rgb(52.159119%,23.139954%,23.529053%);fill-opacity:1;" d="M 457.453125 97.589844 C 454.4375 92.589844 449.234375 89.683594 444.0625 87.398438 C 440.050781 85.617188 437.539062 92.335938 440.414062 94.78125 C 444.203125 98.007812 447.339844 102.066406 451.285156 105.082031 C 452.449219 105.972656 454.378906 106.179688 455.613281 105.265625 C 456.316406 104.75 456.886719 104.292969 457.382812 103.558594 C 458.625 101.746094 458.554688 99.410156 457.453125 97.589844 "/>
<path style=" stroke:none;fill-rule:nonzero;fill:rgb(96.469116%,54.119873%,18.429565%);fill-opacity:1;" d="M 425.917969 79.386719 C 425.917969 79.386719 509.832031 92.71875 521.503906 128.1875 C 525.019531 124.949219 527.65625 104.300781 525.804688 98.878906 C 523.953125 93.457031 489.019531 56.417969 440.703125 66.605469 C 435.738281 69.015625 425.917969 79.386719 425.917969 79.386719 "/>
<path style=" stroke:none;fill-rule:nonzero;fill:rgb(47.44873%,51.368713%,15.689087%);fill-opacity:1;" d="M 520.945312 294.046875 C 520.945312 294.046875 555.957031 404.070312 535.949219 459.078125 C 515.945312 514.085938 607.636719 482.96875 609.300781 411.847656 C 610.96875 340.722656 515.453125 263.734375 520.945312 294.046875 "/>
<path style=" stroke:none;fill-rule:nonzero;fill:rgb(56.079102%,60.389709%,18.429565%);fill-opacity:1;" d="M 579.230469 342.394531 C 578.257812 335.390625 573.324219 327.746094 570.398438 322.683594 C 565.957031 315.003906 557.171875 298.59375 546.132812 300.535156 C 545.515625 300.640625 545.128906 300.929688 544.589844 301.105469 C 544.300781 301.195312 544.015625 301.289062 543.738281 301.414062 C 533.980469 305.425781 538.636719 320.359375 542.601562 327.132812 C 549.722656 339.296875 557.613281 350.8125 567.867188 360.558594 C 573.175781 365.609375 579.257812 358.140625 580.261719 353.429688 C 581.042969 349.78125 580.421875 346.035156 579.230469 342.394531 "/>
<path style=" stroke:none;fill-rule:nonzero;fill:rgb(92.158508%,95.289612%,63.919067%);fill-opacity:1;" d="M 552.308594 215.859375 C 550.101562 209.628906 545.164062 201.800781 539.722656 197.933594 C 533.679688 193.644531 525.875 202.199219 528.949219 208.3125 C 531.855469 214.09375 535.90625 220.117188 539.671875 225.390625 C 545.339844 233.332031 554.824219 222.980469 552.308594 215.859375 "/>
<path style=" stroke:none;fill-rule:nonzero;fill:rgb(92.158508%,95.289612%,63.919067%);fill-opacity:1;" d="M 564.394531 168.429688 C 560.167969 165.683594 555.238281 164.042969 550.601562 162.09375 C 541.742188 158.371094 536.046875 174.410156 544.789062 178.308594 C 548.738281 180.074219 552.78125 182.398438 556.988281 183.425781 C 564.679688 185.320312 571.703125 173.171875 564.394531 168.429688 "/>
<path style=" stroke:none;fill-rule:nonzero;fill:rgb(92.158508%,95.289612%,63.919067%);fill-opacity:1;" d="M 342.925781 132.789062 C 335.996094 132.644531 329.898438 138.332031 326.195312 143.664062 C 321.878906 149.886719 329.0625 159.574219 335.339844 153.171875 C 338.132812 150.324219 341.433594 149.578125 344.625 147.46875 C 349.601562 144.171875 351.132812 132.957031 342.925781 132.789062 "/>
<path style=" stroke:none;fill-rule:nonzero;fill:rgb(92.158508%,95.289612%,63.919067%);fill-opacity:1;" d="M 363.9375 95.277344 C 359.074219 91.089844 350.636719 95.753906 344.933594 96.261719 C 336.792969 96.984375 333.710938 111.257812 343.160156 111.710938 C 351.195312 112.089844 362.445312 111.574219 365.710938 102.851562 C 366.695312 100.214844 366.082031 97.125 363.9375 95.277344 "/>
<path style=" stroke:none;fill-rule:nonzero;fill:rgb(52.159119%,23.139954%,23.529053%);fill-opacity:1;" d="M 757.222656 291.054688 C 756.863281 286.496094 754.570312 282.753906 751.378906 279.867188 C 751.984375 275.996094 750.828125 271.917969 747.632812 269.363281 C 739.539062 262.867188 726.8125 265.175781 721.707031 273.40625 C 708.59375 264.621094 695.015625 256.417969 680.914062 249.414062 C 665.359375 241.6875 641.660156 229.871094 623.441406 232.546875 C 584.121094 238.3125 557.074219 284.359375 525.261719 303.410156 C 521.824219 305.46875 523.496094 312.007812 527.664062 309.808594 C 559.300781 293.113281 581.882812 249.121094 620.5 249.492188 C 656.507812 249.835938 689.882812 273.933594 719.316406 292.792969 C 718.019531 300.550781 718.316406 312.128906 726.046875 314.894531 C 731.125 316.714844 734.363281 314.398438 736.378906 310.617188 C 738.109375 312.230469 739.8125 313.863281 741.714844 315.316406 C 745.285156 318.039062 750.804688 315.359375 751.828125 311.199219 C 752.605469 308.042969 752.539062 305.246094 752.121094 302.578125 C 752.175781 302.546875 752.230469 302.535156 752.28125 302.5 C 756.09375 300.078125 757.570312 295.363281 757.222656 291.054688 "/>
<g clip-path="url(#clip1)" clip-rule="nonzero">
<path style=" stroke:none;fill-rule:nonzero;fill:rgb(52.159119%,23.139954%,23.529053%);fill-opacity:1;" d="M 434.25 518.625 C 352.796875 518.832031 279.910156 550.207031 215.03125 598.46875 C 181.5625 623.367188 150.714844 651.746094 121.289062 681.261719 C 106.269531 696.324219 91.808594 711.953125 77.523438 727.710938 C 73.902344 731.699219 71.332031 734.976562 68.875 737.183594 C 56.683594 723.3125 42.40625 712.273438 25.808594 703.375 C 19.132812 699.792969 13.582031 710.53125 15.710938 715.789062 C 24.550781 737.613281 40.640625 753.003906 63.164062 760.226562 C 64.753906 760.742188 66.539062 760.605469 68.128906 759.996094 C 72.828125 760.910156 77.542969 755.890625 77.585938 750.644531 C 172.3125 644.9375 282.375 534.632812 433.289062 527.027344 C 437.828125 526.800781 439.277344 518.609375 434.25 518.625 "/>
</g>
</g>
</svg>
